<svg width="96" height="96" viewBox="0 0 96 96" fill="none" xmlns="http://www.w3.org/2000/svg">
<path fill-rule="evenodd" clip-rule="evenodd" d="M48 8C25.92 8 8 25.92 8 48C8 70.08 25.92 88 48 88C70.08 88 88 70.08 88 48C88 25.92 70.08 8 48 8ZM16 48.0006C16 45.5606 16.32 43.1606 16.84 40.8806L35.96 60.0006V64.0006C35.96 68.4006 39.56 72.0006 43.96 72.0006V79.7206C28.24 77.7206 16 64.2806 16 48.0006ZM63.96 63.9995C67.56 63.9995 70.52 66.3595 71.56 69.5995C76.76 63.9195 80 56.3195 80 47.9995C80 34.5995 71.68 23.0795 59.96 18.3595V19.9995C59.96 24.3995 56.36 27.9995 51.96 27.9995H43.96V35.9995C43.96 38.1995 42.16 39.9995 39.96 39.9995H31.96V47.9995H55.96C58.16 47.9995 59.96 49.7995 59.96 51.9995V63.9995H63.96Z" fill="#C9C1D9"/>
</svg>
