<svg width="92" height="32" viewBox="0 0 92 32" fill="none" xmlns="http://www.w3.org/2000/svg">
<rect y="0.000366211" width="4.56954" height="4.56954" fill="#F5F5F5"/>
<rect y="9.13904" width="4.56954" height="4.56954" fill="#F5F5F5"/>
<rect x="9.13904" y="9.13904" width="4.56954" height="4.56954" fill="#F5F5F5"/>
<rect x="22.8477" y="9.13904" width="4.56954" height="4.56954" fill="#FAFAFA"/>
<rect x="13.7086" y="9.13904" width="4.56954" height="4.56954" fill="#FAFAFA"/>
<rect x="27.4172" y="9.13904" width="4.56954" height="4.56954" fill="white"/>
<rect x="9.13904" y="4.56976" width="4.56954" height="4.56954" fill="#F5F5F5"/>
<rect x="22.8477" y="4.56976" width="4.56954" height="4.56954" fill="#FAFAFA"/>
<rect x="9.13904" y="0.00012207" width="4.56954" height="4.56954" fill="#F5F5F5"/>
<rect x="22.8477" y="0.00012207" width="4.56954" height="4.56954" fill="#FAFAFA"/>
<rect y="13.7087" width="4.56954" height="4.56954" fill="#F5F5F5"/>
<rect x="9.13904" y="13.7087" width="4.56954" height="4.56954" fill="#FAFAFA"/>
<rect x="22.8477" y="13.7087" width="4.56954" height="4.56954" fill="white"/>
<rect y="18.2783" width="4.56954" height="4.56954" fill="#F5F5F5"/>
<rect x="9.13904" y="18.2783" width="4.56954" height="4.56954" fill="#FAFAFA"/>
<rect x="22.8477" y="18.2783" width="4.56954" height="4.56954" fill="white"/>
<rect x="13.7086" y="18.2783" width="4.56954" height="4.56954" fill="#FAFAFA"/>
<rect x="27.4172" y="18.2783" width="4.56954" height="4.56954" fill="white"/>
<rect x="36.5563" y="18.2783" width="4.56954" height="4.56954" fill="white"/>
<rect x="36.5563" y="13.7087" width="4.56954" height="4.56954" fill="white"/>
<rect x="36.5563" y="9.13904" width="4.56954" height="4.56954" fill="white"/>
<rect x="41.1259" y="18.2783" width="4.56954" height="4.56954" fill="white"/>
<rect x="45.6953" y="18.2783" width="4.56954" height="4.56954" fill="white"/>
<rect x="45.6953" y="22.8479" width="4.56954" height="4.56954" fill="white"/>
<rect x="45.6953" y="27.4172" width="4.56954" height="4.56954" fill="white"/>
<rect x="41.1259" y="27.4172" width="4.56954" height="4.56954" fill="white"/>
<rect x="36.5563" y="27.4172" width="4.56954" height="4.56954" fill="white"/>
<rect x="45.6953" y="13.7087" width="4.56954" height="4.56954" fill="white"/>
<rect x="45.6953" y="9.13904" width="4.56954" height="4.56954" fill="white"/>
<rect x="73.1506" width="4.56954" height="4.56954" fill="white"/>
<rect x="73.1506" y="9.13892" width="4.56954" height="4.56954" fill="white"/>
<rect x="54.8726" y="0.000183105" width="4.56954" height="4.56954" fill="white"/>
<rect x="82.2898" y="9.13892" width="4.56954" height="4.56954" fill="#FAFAFA"/>
<rect x="86.8593" y="9.13892" width="4.56954" height="4.56954" fill="#FAFAFA"/>
<rect x="82.2898" y="4.56958" width="4.56954" height="4.56954" fill="white"/>
<rect x="82.2898" width="4.56954" height="4.56954" fill="white"/>
<rect x="73.1506" y="13.7086" width="4.56954" height="4.56954" fill="white"/>
<rect x="54.8726" y="4.56958" width="4.56954" height="4.56954" fill="white"/>
<rect x="82.2898" y="13.7086" width="4.56954" height="4.56954" fill="#FAFAFA"/>
<rect x="73.1506" y="18.2781" width="4.56954" height="4.56954" fill="#FAFAFA"/>
<rect x="54.8726" y="9.13892" width="4.56954" height="4.56954" fill="white"/>
<rect x="64.0116" y="9.13892" width="4.56954" height="4.56954" fill="white"/>
<rect x="59.4421" y="9.13892" width="4.56954" height="4.56954" fill="white"/>
<rect x="54.8726" y="13.7086" width="4.56954" height="4.56954" fill="white"/>
<rect x="64.0116" y="13.7086" width="4.56954" height="4.56954" fill="white"/>
<rect x="54.8726" y="18.2781" width="4.56954" height="4.56954" fill="white"/>
<rect x="64.0116" y="18.2781" width="4.56954" height="4.56954" fill="white"/>
<rect x="59.4421" y="18.2781" width="4.56954" height="4.56954" fill="white"/>
<rect x="82.2898" y="18.2781" width="4.56954" height="4.56954" fill="#FAFAFA"/>
<rect x="86.8593" y="18.2781" width="4.56954" height="4.56954" fill="#F5F5F5"/>
<rect x="86.4559" y="27.4285" width="0.828816" height="0.326531" fill="#CCB4E4"/>
<rect x="85.6271" y="28.0815" width="0.828816" height="0.326531" fill="#CCB4E4"/>
<rect x="84.7983" y="28.7347" width="0.828816" height="0.326531" fill="#CCB4E4"/>
<rect x="88.9424" y="28.0815" width="0.828816" height="0.326531" fill="#CCB4E4"/>
<rect x="74.1273" y="28.0815" width="0.828816" height="0.326531" fill="#CCB4E4"/>
<rect x="89.7712" y="28.7347" width="0.828816" height="0.326531" fill="#CCB4E4"/>
<rect x="74.9561" y="28.7347" width="0.828816" height="0.326531" fill="#CCB4E4"/>
<rect x="89.7712" y="29.3876" width="0.828816" height="0.326531" fill="#CCB4E4"/>
<rect x="74.9561" y="29.3876" width="0.828816" height="0.326531" fill="#CCB4E4"/>
<rect x="89.7712" y="30.0409" width="0.828816" height="0.326531" fill="#CCB4E4"/>
<rect x="74.9561" y="30.0409" width="0.828816" height="0.326531" fill="#CCB4E4"/>
<rect x="88.9424" y="30.6938" width="0.828816" height="0.326531" fill="#CCB4E4"/>
<rect x="74.1273" y="30.6938" width="0.828816" height="0.326531" fill="#CCB4E4"/>
<rect x="88.1135" y="31.347" width="0.828816" height="0.326531" fill="#CCB4E4"/>
<rect x="73.2985" y="31.347" width="0.828816" height="0.326531" fill="#CCB4E4"/>
<rect x="86.4559" y="31.347" width="0.828816" height="0.326531" fill="#CCB4E4"/>
<rect x="84.7983" y="30.0409" width="0.828816" height="0.326531" fill="#CCB4E4"/>
<rect x="84.7983" y="29.3876" width="0.828816" height="0.326531" fill="#CCB4E4"/>
<rect x="85.6271" y="30.6938" width="0.828816" height="0.326531" fill="#CCB4E4"/>
<rect x="81.5608" y="27.4285" width="0.828816" height="0.326531" fill="#CCB4E4"/>
<rect x="79.9031" y="27.4285" width="0.828816" height="0.326531" fill="#CCB4E4"/>
<rect x="78.2455" y="27.4285" width="0.828816" height="0.326531" fill="#CCB4E4"/>
<rect x="64.9067" y="27.4285" width="0.828816" height="0.326531" fill="#CCB4E4"/>
<rect x="63.249" y="27.4285" width="0.828816" height="0.326531" fill="#CCB4E4"/>
<rect x="66.5643" y="27.4285" width="0.828816" height="0.326531" fill="#CCB4E4"/>
<rect x="66.5643" y="31.347" width="0.828816" height="0.326531" fill="#CCB4E4"/>
<rect x="63.249" y="31.347" width="0.828816" height="0.326531" fill="#CCB4E4"/>
<rect x="57.3438" y="31.347" width="0.828816" height="0.326531" fill="#CCB4E4"/>
<rect x="56.5149" y="30.6938" width="0.828816" height="0.326531" fill="#CCB4E4"/>
<rect x="55.6862" y="30.0409" width="0.828816" height="0.326531" fill="#CCB4E4"/>
<rect x="54.8573" y="29.3876" width="0.828816" height="0.326531" fill="#CCB4E4"/>
<rect x="54.8573" y="28.7347" width="0.828816" height="0.326531" fill="#CCB4E4"/>
<rect x="54.8573" y="28.0815" width="0.828816" height="0.326531" fill="#CCB4E4"/>
<rect x="54.8573" y="27.4286" width="0.828816" height="0.326531" fill="#CCB4E4"/>
<rect x="59.8302" y="27.4285" width="0.828816" height="0.326531" fill="#CCB4E4"/>
<rect x="59.8302" y="28.0815" width="0.828816" height="0.326531" fill="#CCB4E4"/>
<rect x="59.8302" y="28.7347" width="0.828816" height="0.326531" fill="#CCB4E4"/>
<rect x="59.8302" y="29.3876" width="0.828816" height="0.326531" fill="#CCB4E4"/>
<rect x="59.0013" y="30.0409" width="0.828816" height="0.326531" fill="#CCB4E4"/>
<rect x="58.1726" y="30.6938" width="0.828816" height="0.326531" fill="#CCB4E4"/>
<rect x="69.9832" y="27.4285" width="0.828816" height="0.326531" fill="#CCB4E4"/>
<rect x="71.6409" y="27.4285" width="0.828816" height="0.326531" fill="#CCB4E4"/>
<rect x="78.2455" y="28.0815" width="0.828816" height="0.326531" fill="#CCB4E4"/>
<rect x="64.9067" y="28.0815" width="0.828816" height="0.326531" fill="#CCB4E4"/>
<rect x="69.9832" y="28.0815" width="0.828816" height="0.326531" fill="#CCB4E4"/>
<rect x="78.2455" y="28.7347" width="0.828816" height="0.326531" fill="#CCB4E4"/>
<rect x="64.9067" y="28.7347" width="0.828816" height="0.326531" fill="#CCB4E4"/>
<rect x="69.9832" y="28.7347" width="0.828816" height="0.326531" fill="#CCB4E4"/>
<rect x="78.2455" y="29.3876" width="0.828816" height="0.326531" fill="#CCB4E4"/>
<rect x="64.9067" y="29.3876" width="0.828816" height="0.326531" fill="#CCB4E4"/>
<rect x="69.9832" y="29.3876" width="0.828816" height="0.326531" fill="#CCB4E4"/>
<rect x="79.9031" y="29.3876" width="0.828816" height="0.326531" fill="#CCB4E4"/>
<rect x="81.5608" y="29.3876" width="0.828816" height="0.326531" fill="#CCB4E4"/>
<rect x="78.2455" y="30.0409" width="0.828816" height="0.326531" fill="#CCB4E4"/>
<rect x="64.9067" y="30.0409" width="0.828816" height="0.326531" fill="#CCB4E4"/>
<rect x="69.9832" y="30.0409" width="0.828816" height="0.326531" fill="#CCB4E4"/>
<rect x="78.2455" y="30.6938" width="0.828816" height="0.326531" fill="#CCB4E4"/>
<rect x="64.9067" y="30.6938" width="0.828816" height="0.326531" fill="#CCB4E4"/>
<rect x="69.9832" y="30.6938" width="0.828816" height="0.326531" fill="#CCB4E4"/>
<rect x="78.2455" y="31.347" width="0.828816" height="0.326531" fill="#CCB4E4"/>
<rect x="64.9067" y="31.347" width="0.828816" height="0.326531" fill="#CCB4E4"/>
<rect x="69.9832" y="31.347" width="0.828816" height="0.326531" fill="#CCB4E4"/>
<rect x="71.6409" y="31.347" width="0.828816" height="0.326531" fill="#CCB4E4"/>
<rect x="79.9031" y="31.347" width="0.828816" height="0.326531" fill="#CCB4E4"/>
<rect x="81.5608" y="31.347" width="0.828816" height="0.326531" fill="#CCB4E4"/>
<rect x="86.4559" y="27.755" width="0.828816" height="0.326531" fill="#CCB4E4"/>
<rect x="85.6271" y="28.4079" width="0.828816" height="0.326531" fill="#CCB4E4"/>
<rect x="84.7983" y="29.0612" width="0.828816" height="0.326531" fill="#CCB4E4"/>
<rect x="88.9424" y="28.4079" width="0.828816" height="0.326531" fill="#CCB4E4"/>
<rect x="74.1273" y="28.4079" width="0.828816" height="0.326531" fill="#CCB4E4"/>
<rect x="89.7712" y="29.0612" width="0.828816" height="0.326531" fill="#CCB4E4"/>
<rect x="74.9561" y="29.0612" width="0.828816" height="0.326531" fill="#CCB4E4"/>
<rect x="89.7712" y="29.7141" width="0.828816" height="0.326531" fill="#CCB4E4"/>
<rect x="74.9561" y="29.7141" width="0.828816" height="0.326531" fill="#CCB4E4"/>
<rect x="89.7712" y="30.3674" width="0.828816" height="0.326531" fill="#CCB4E4"/>
<rect x="74.9561" y="30.3674" width="0.828816" height="0.326531" fill="#CCB4E4"/>
<rect x="88.9424" y="31.0203" width="0.828816" height="0.326531" fill="#CCB4E4"/>
<rect x="74.1273" y="31.0203" width="0.828816" height="0.326531" fill="#CCB4E4"/>
<rect x="88.1135" y="31.6735" width="0.828816" height="0.326531" fill="#CCB4E4"/>
<rect x="73.2985" y="31.6735" width="0.828816" height="0.326531" fill="#CCB4E4"/>
<rect x="86.4559" y="31.6735" width="0.828816" height="0.326531" fill="#CCB4E4"/>
<rect x="84.7983" y="30.3674" width="0.828816" height="0.326531" fill="#CCB4E4"/>
<rect x="84.7983" y="29.7141" width="0.828816" height="0.326531" fill="#CCB4E4"/>
<rect x="85.6271" y="31.0203" width="0.828816" height="0.326531" fill="#CCB4E4"/>
<rect x="81.5608" y="27.755" width="0.828816" height="0.326531" fill="#CCB4E4"/>
<rect x="79.9031" y="27.755" width="0.828816" height="0.326531" fill="#CCB4E4"/>
<rect x="78.2455" y="27.755" width="0.828816" height="0.326531" fill="#CCB4E4"/>
<rect x="64.9067" y="27.755" width="0.828816" height="0.326531" fill="#CCB4E4"/>
<rect x="63.249" y="27.755" width="0.828816" height="0.326531" fill="#CCB4E4"/>
<rect x="66.5643" y="27.755" width="0.828816" height="0.326531" fill="#CCB4E4"/>
<rect x="66.5643" y="31.6735" width="0.828816" height="0.326531" fill="#CCB4E4"/>
<rect x="63.249" y="31.6735" width="0.828816" height="0.326531" fill="#CCB4E4"/>
<rect x="57.3438" y="31.6735" width="0.828816" height="0.326531" fill="#CCB4E4"/>
<rect x="56.5149" y="31.0203" width="0.828816" height="0.326531" fill="#CCB4E4"/>
<rect x="55.6862" y="30.3674" width="0.828816" height="0.326531" fill="#CCB4E4"/>
<rect x="54.8573" y="29.7141" width="0.828816" height="0.326531" fill="#CCB4E4"/>
<rect x="54.8573" y="29.0612" width="0.828816" height="0.326531" fill="#CCB4E4"/>
<rect x="54.8573" y="28.4079" width="0.828816" height="0.326531" fill="#CCB4E4"/>
<rect x="54.8573" y="27.755" width="0.828816" height="0.326531" fill="#CCB4E4"/>
<rect x="59.8302" y="27.755" width="0.828816" height="0.326531" fill="#CCB4E4"/>
<rect x="59.8302" y="28.4079" width="0.828816" height="0.326531" fill="#CCB4E4"/>
<rect x="59.8302" y="29.0612" width="0.828816" height="0.326531" fill="#CCB4E4"/>
<rect x="59.8302" y="29.7141" width="0.828816" height="0.326531" fill="#CCB4E4"/>
<rect x="59.0013" y="30.3674" width="0.828816" height="0.326531" fill="#CCB4E4"/>
<rect x="58.1726" y="31.0203" width="0.828816" height="0.326531" fill="#CCB4E4"/>
<rect x="69.9832" y="27.755" width="0.828816" height="0.326531" fill="#CCB4E4"/>
<rect x="71.6409" y="27.755" width="0.828816" height="0.326531" fill="#CCB4E4"/>
<rect x="78.2455" y="28.4079" width="0.828816" height="0.326531" fill="#CCB4E4"/>
<rect x="64.9067" y="28.4079" width="0.828816" height="0.326531" fill="#CCB4E4"/>
<rect x="69.9832" y="28.4079" width="0.828816" height="0.326531" fill="#CCB4E4"/>
<rect x="78.2455" y="29.0612" width="0.828816" height="0.326531" fill="#CCB4E4"/>
<rect x="64.9067" y="29.0612" width="0.828816" height="0.326531" fill="#CCB4E4"/>
<rect x="69.9832" y="29.0612" width="0.828816" height="0.326531" fill="#CCB4E4"/>
<rect x="78.2455" y="29.7141" width="0.828816" height="0.326531" fill="#CCB4E4"/>
<rect x="64.9067" y="29.7141" width="0.828816" height="0.326531" fill="#CCB4E4"/>
<rect x="69.9832" y="29.7141" width="0.828816" height="0.326531" fill="#CCB4E4"/>
<rect x="79.9031" y="29.7141" width="0.828816" height="0.326531" fill="#CCB4E4"/>
<rect x="81.5608" y="29.7141" width="0.828816" height="0.326531" fill="#CCB4E4"/>
<rect x="78.2455" y="30.3674" width="0.828816" height="0.326531" fill="#CCB4E4"/>
<rect x="64.9067" y="30.3674" width="0.828816" height="0.326531" fill="#CCB4E4"/>
<rect x="69.9832" y="30.3674" width="0.828816" height="0.326531" fill="#CCB4E4"/>
<rect x="78.2455" y="31.0203" width="0.828816" height="0.326531" fill="#CCB4E4"/>
<rect x="64.9067" y="31.0203" width="0.828816" height="0.326531" fill="#CCB4E4"/>
<rect x="69.9832" y="31.0203" width="0.828816" height="0.326531" fill="#CCB4E4"/>
<rect x="78.2455" y="31.6735" width="0.828816" height="0.326531" fill="#CCB4E4"/>
<rect x="64.9067" y="31.6735" width="0.828816" height="0.326531" fill="#CCB4E4"/>
<rect x="69.9832" y="31.6735" width="0.828816" height="0.326531" fill="#CCB4E4"/>
<rect x="71.6409" y="31.6735" width="0.828816" height="0.326531" fill="#CCB4E4"/>
<rect x="79.9031" y="31.6735" width="0.828816" height="0.326531" fill="#CCB4E4"/>
<rect x="81.5608" y="31.6735" width="0.828816" height="0.326531" fill="#CCB4E4"/>
<rect x="87.2848" y="27.4285" width="0.828816" height="0.326531" fill="#CCB4E4"/>
<rect x="86.4559" y="28.0815" width="0.828816" height="0.326531" fill="#CCB4E4"/>
<rect x="85.6271" y="28.7347" width="0.828816" height="0.326531" fill="#CCB4E4"/>
<rect x="89.7712" y="28.0815" width="0.828816" height="0.326531" fill="#CCB4E4"/>
<rect x="74.9561" y="28.0815" width="0.828816" height="0.326531" fill="#CCB4E4"/>
<rect x="90.6" y="28.7347" width="0.828816" height="0.326531" fill="#CCB4E4"/>
<rect x="75.7849" y="28.7347" width="0.828816" height="0.326531" fill="#CCB4E4"/>
<rect x="90.6" y="29.3876" width="0.828816" height="0.326531" fill="#CCB4E4"/>
<rect x="75.7849" y="29.3876" width="0.828816" height="0.326531" fill="#CCB4E4"/>
<rect x="90.6" y="30.0409" width="0.828816" height="0.326531" fill="#CCB4E4"/>
<rect x="75.7849" y="30.0409" width="0.828816" height="0.326531" fill="#CCB4E4"/>
<rect x="89.7712" y="30.6938" width="0.828816" height="0.326531" fill="#CCB4E4"/>
<rect x="74.9561" y="30.6938" width="0.828816" height="0.326531" fill="#CCB4E4"/>
<rect x="88.9424" y="31.347" width="0.828816" height="0.326531" fill="#CCB4E4"/>
<rect x="74.1273" y="31.347" width="0.828816" height="0.326531" fill="#CCB4E4"/>
<rect x="87.2848" y="31.347" width="0.828816" height="0.326531" fill="#CCB4E4"/>
<rect x="85.6271" y="30.0409" width="0.828816" height="0.326531" fill="#CCB4E4"/>
<rect x="85.6271" y="29.3876" width="0.828816" height="0.326531" fill="#CCB4E4"/>
<rect x="86.4559" y="30.6938" width="0.828816" height="0.326531" fill="#CCB4E4"/>
<rect x="82.3895" y="27.4285" width="0.828816" height="0.326531" fill="#CCB4E4"/>
<rect x="80.7319" y="27.4285" width="0.828816" height="0.326531" fill="#CCB4E4"/>
<rect x="79.0743" y="27.4285" width="0.828816" height="0.326531" fill="#CCB4E4"/>
<rect x="65.7355" y="27.4285" width="0.828816" height="0.326531" fill="#CCB4E4"/>
<rect x="64.0779" y="27.4285" width="0.828816" height="0.326531" fill="#CCB4E4"/>
<rect x="67.3932" y="27.4285" width="0.828816" height="0.326531" fill="#CCB4E4"/>
<rect x="67.3932" y="31.347" width="0.828816" height="0.326531" fill="#CCB4E4"/>
<rect x="64.0779" y="31.347" width="0.828816" height="0.326531" fill="#CCB4E4"/>
<rect x="58.1726" y="31.347" width="0.828816" height="0.326531" fill="#CCB4E4"/>
<rect x="57.3438" y="30.6938" width="0.828816" height="0.326531" fill="#CCB4E4"/>
<rect x="56.5149" y="30.0409" width="0.828816" height="0.326531" fill="#CCB4E4"/>
<rect x="55.6862" y="29.3876" width="0.828816" height="0.326531" fill="#CCB4E4"/>
<rect x="55.6862" y="28.7347" width="0.828816" height="0.326531" fill="#CCB4E4"/>
<rect x="55.6862" y="28.0815" width="0.828816" height="0.326531" fill="#CCB4E4"/>
<rect x="55.6862" y="27.4285" width="0.828816" height="0.326531" fill="#CCB4E4"/>
<rect x="60.6591" y="27.4285" width="0.828816" height="0.326531" fill="#CCB4E4"/>
<rect x="60.6591" y="28.0815" width="0.828816" height="0.326531" fill="#CCB4E4"/>
<rect x="60.6591" y="28.7347" width="0.828816" height="0.326531" fill="#CCB4E4"/>
<rect x="60.6591" y="29.3876" width="0.828816" height="0.326531" fill="#CCB4E4"/>
<rect x="59.8302" y="30.0409" width="0.828816" height="0.326531" fill="#CCB4E4"/>
<rect x="59.0013" y="30.6938" width="0.828816" height="0.326531" fill="#CCB4E4"/>
<rect x="70.812" y="27.4285" width="0.828816" height="0.326531" fill="#CCB4E4"/>
<rect x="72.4696" y="27.4285" width="0.828816" height="0.326531" fill="#CCB4E4"/>
<rect x="79.0743" y="28.0815" width="0.828816" height="0.326531" fill="#CCB4E4"/>
<rect x="65.7355" y="28.0815" width="0.828816" height="0.326531" fill="#CCB4E4"/>
<rect x="70.812" y="28.0815" width="0.828816" height="0.326531" fill="#CCB4E4"/>
<rect x="79.0743" y="28.7347" width="0.828816" height="0.326531" fill="#CCB4E4"/>
<rect x="65.7355" y="28.7347" width="0.828816" height="0.326531" fill="#CCB4E4"/>
<rect x="70.812" y="28.7347" width="0.828816" height="0.326531" fill="#CCB4E4"/>
<rect x="79.0743" y="29.3876" width="0.828816" height="0.326531" fill="#CCB4E4"/>
<rect x="65.7355" y="29.3876" width="0.828816" height="0.326531" fill="#CCB4E4"/>
<rect x="70.812" y="29.3876" width="0.828816" height="0.326531" fill="#CCB4E4"/>
<rect x="80.7319" y="29.3876" width="0.828816" height="0.326531" fill="#CCB4E4"/>
<rect x="82.3895" y="29.3876" width="0.828816" height="0.326531" fill="#CCB4E4"/>
<rect x="79.0743" y="30.0409" width="0.828816" height="0.326531" fill="#CCB4E4"/>
<rect x="65.7355" y="30.0409" width="0.828816" height="0.326531" fill="#CCB4E4"/>
<rect x="70.812" y="30.0409" width="0.828816" height="0.326531" fill="#CCB4E4"/>
<rect x="79.0743" y="30.6938" width="0.828816" height="0.326531" fill="#CCB4E4"/>
<rect x="65.7355" y="30.6938" width="0.828816" height="0.326531" fill="#CCB4E4"/>
<rect x="70.812" y="30.6938" width="0.828816" height="0.326531" fill="#CCB4E4"/>
<rect x="79.0743" y="31.347" width="0.828816" height="0.326531" fill="#CCB4E4"/>
<rect x="65.7355" y="31.347" width="0.828816" height="0.326531" fill="#CCB4E4"/>
<rect x="70.812" y="31.347" width="0.828816" height="0.326531" fill="#CCB4E4"/>
<rect x="72.4696" y="31.347" width="0.828816" height="0.326531" fill="#CCB4E4"/>
<rect x="80.7319" y="31.347" width="0.828816" height="0.326531" fill="#CCB4E4"/>
<rect x="82.3895" y="31.347" width="0.828816" height="0.326531" fill="#CCB4E4"/>
<rect x="87.2848" y="27.755" width="0.828816" height="0.326531" fill="#CCB4E4"/>
<rect x="86.4559" y="28.4079" width="0.828816" height="0.326531" fill="#CCB4E4"/>
<rect x="85.6271" y="29.0612" width="0.828816" height="0.326531" fill="#CCB4E4"/>
<rect x="89.7712" y="28.4079" width="0.828816" height="0.326531" fill="#CCB4E4"/>
<rect x="74.9561" y="28.4079" width="0.828816" height="0.326531" fill="#CCB4E4"/>
<rect x="90.6" y="29.0612" width="0.828816" height="0.326531" fill="#CCB4E4"/>
<rect x="75.7849" y="29.0612" width="0.828816" height="0.326531" fill="#CCB4E4"/>
<rect x="90.6" y="29.7141" width="0.828816" height="0.326531" fill="#CCB4E4"/>
<rect x="75.7849" y="29.7141" width="0.828816" height="0.326531" fill="#CCB4E4"/>
<rect x="90.6" y="30.3674" width="0.828816" height="0.326531" fill="#CCB4E4"/>
<rect x="75.7849" y="30.3674" width="0.828816" height="0.326531" fill="#CCB4E4"/>
<rect x="89.7712" y="31.0203" width="0.828816" height="0.326531" fill="#CCB4E4"/>
<rect x="74.9561" y="31.0203" width="0.828816" height="0.326531" fill="#CCB4E4"/>
<rect x="88.9424" y="31.6735" width="0.828816" height="0.326531" fill="#CCB4E4"/>
<rect x="74.1273" y="31.6735" width="0.828816" height="0.326531" fill="#CCB4E4"/>
<rect x="87.2848" y="31.6735" width="0.828816" height="0.326531" fill="#CCB4E4"/>
<rect x="85.6271" y="30.3674" width="0.828816" height="0.326531" fill="#CCB4E4"/>
<rect x="85.6271" y="29.7141" width="0.828816" height="0.326531" fill="#CCB4E4"/>
<rect x="86.4559" y="31.0203" width="0.828816" height="0.326531" fill="#CCB4E4"/>
<rect x="82.3895" y="27.755" width="0.828816" height="0.326531" fill="#CCB4E4"/>
<rect x="80.7319" y="27.755" width="0.828816" height="0.326531" fill="#CCB4E4"/>
<rect x="79.0743" y="27.755" width="0.828816" height="0.326531" fill="#CCB4E4"/>
<rect x="65.7355" y="27.755" width="0.828816" height="0.326531" fill="#CCB4E4"/>
<rect x="64.0779" y="27.755" width="0.828816" height="0.326531" fill="#CCB4E4"/>
<rect x="67.3932" y="27.755" width="0.828816" height="0.326531" fill="#CCB4E4"/>
<rect x="67.3932" y="31.6735" width="0.828816" height="0.326531" fill="#CCB4E4"/>
<rect x="64.0779" y="31.6735" width="0.828816" height="0.326531" fill="#CCB4E4"/>
<rect x="58.1726" y="31.6735" width="0.828816" height="0.326531" fill="#CCB4E4"/>
<rect x="57.3438" y="31.0203" width="0.828816" height="0.326531" fill="#CCB4E4"/>
<rect x="56.5149" y="30.3674" width="0.828816" height="0.326531" fill="#CCB4E4"/>
<rect x="55.6862" y="29.7141" width="0.828816" height="0.326531" fill="#CCB4E4"/>
<rect x="55.6862" y="29.0612" width="0.828816" height="0.326531" fill="#CCB4E4"/>
<rect x="55.6862" y="28.4079" width="0.828816" height="0.326531" fill="#CCB4E4"/>
<rect x="55.6862" y="27.755" width="0.828816" height="0.326531" fill="#CCB4E4"/>
<rect x="60.6591" y="27.755" width="0.828816" height="0.326531" fill="#CCB4E4"/>
<rect x="60.6591" y="28.4079" width="0.828816" height="0.326531" fill="#CCB4E4"/>
<rect x="60.6591" y="29.0612" width="0.828816" height="0.326531" fill="#CCB4E4"/>
<rect x="60.6591" y="29.7141" width="0.828816" height="0.326531" fill="#CCB4E4"/>
<rect x="59.8302" y="30.3674" width="0.828816" height="0.326531" fill="#CCB4E4"/>
<rect x="59.0013" y="31.0203" width="0.828816" height="0.326531" fill="#CCB4E4"/>
<rect x="70.812" y="27.755" width="0.828816" height="0.326531" fill="#CCB4E4"/>
<rect x="72.4696" y="27.755" width="0.828816" height="0.326531" fill="#CCB4E4"/>
<rect x="79.0743" y="28.4079" width="0.828816" height="0.326531" fill="#CCB4E4"/>
<rect x="65.7355" y="28.4079" width="0.828816" height="0.326531" fill="#CCB4E4"/>
<rect x="70.812" y="28.4079" width="0.828816" height="0.326531" fill="#CCB4E4"/>
<rect x="79.0743" y="29.0612" width="0.828816" height="0.326531" fill="#CCB4E4"/>
<rect x="65.7355" y="29.0612" width="0.828816" height="0.326531" fill="#CCB4E4"/>
<rect x="70.812" y="29.0612" width="0.828816" height="0.326531" fill="#CCB4E4"/>
<rect x="79.0743" y="29.7141" width="0.828816" height="0.326531" fill="#CCB4E4"/>
<rect x="65.7355" y="29.7141" width="0.828816" height="0.326531" fill="#CCB4E4"/>
<rect x="70.812" y="29.7141" width="0.828816" height="0.326531" fill="#CCB4E4"/>
<rect x="80.7319" y="29.7141" width="0.828816" height="0.326531" fill="#CCB4E4"/>
<rect x="82.3895" y="29.7141" width="0.828816" height="0.326531" fill="#CCB4E4"/>
<rect x="79.0743" y="30.3674" width="0.828816" height="0.326531" fill="#CCB4E4"/>
<rect x="65.7355" y="30.3674" width="0.828816" height="0.326531" fill="#CCB4E4"/>
<rect x="70.812" y="30.3674" width="0.828816" height="0.326531" fill="#CCB4E4"/>
<rect x="79.0743" y="31.0203" width="0.828816" height="0.326531" fill="#CCB4E4"/>
<rect x="65.7355" y="31.0203" width="0.828816" height="0.326531" fill="#CCB4E4"/>
<rect x="70.812" y="31.0203" width="0.828816" height="0.326531" fill="#CCB4E4"/>
<rect x="79.0743" y="31.6735" width="0.828816" height="0.326531" fill="#CCB4E4"/>
<rect x="65.7355" y="31.6735" width="0.828816" height="0.326531" fill="#CCB4E4"/>
<rect x="70.812" y="31.6735" width="0.828816" height="0.326531" fill="#CCB4E4"/>
<rect x="72.4696" y="31.6735" width="0.828816" height="0.326531" fill="#CCB4E4"/>
<rect x="80.7319" y="31.6735" width="0.828816" height="0.326531" fill="#CCB4E4"/>
<rect x="82.3895" y="31.6735" width="0.828816" height="0.326531" fill="#CCB4E4"/>
<rect x="88.1135" y="27.4285" width="0.828816" height="0.326531" fill="#CCB4E4"/>
<rect x="73.2985" y="27.4285" width="0.828816" height="0.326531" fill="#CCB4E4"/>
<rect x="88.1135" y="27.755" width="0.828816" height="0.326531" fill="#CCB4E4"/>
<rect x="73.2985" y="27.755" width="0.828816" height="0.326531" fill="#CCB4E4"/>
<rect x="88.9424" y="27.4285" width="0.828816" height="0.326531" fill="#CCB4E4"/>
<rect x="74.1273" y="27.4285" width="0.828816" height="0.326531" fill="#CCB4E4"/>
<rect x="88.9424" y="27.755" width="0.828816" height="0.326531" fill="#CCB4E4"/>
<rect x="74.1273" y="27.755" width="0.828816" height="0.326531" fill="#CCB4E4"/>
</svg>
