<svg width="92" height="34" viewBox="0 0 92 34" fill="none" xmlns="http://www.w3.org/2000/svg">
<g filter="url(#filter0_d)">
<rect width="4.57143" height="4.57143" fill="#F5F5F5"/>
<rect y="9.14285" width="4.57143" height="4.57143" fill="#F5F5F5"/>
<rect x="9.14285" y="9.14285" width="4.57143" height="4.57143" fill="#F5F5F5"/>
<rect x="22.8571" y="9.14285" width="4.57143" height="4.57143" fill="#FAFAFA"/>
<rect x="13.7142" y="9.14285" width="4.57143" height="4.57143" fill="#FAFAFA"/>
<rect x="27.4286" y="9.14285" width="4.57143" height="4.57143" fill="white"/>
<rect x="9.14285" y="4.57138" width="4.57143" height="4.57143" fill="#F5F5F5"/>
<rect x="22.8571" y="4.57138" width="4.57143" height="4.57143" fill="#FAFAFA"/>
<rect x="9.14285" width="4.57143" height="4.57143" fill="#F5F5F5"/>
<rect x="22.8571" width="4.57143" height="4.57143" fill="#FAFAFA"/>
<rect y="13.7143" width="4.57143" height="4.57143" fill="#F5F5F5"/>
<rect x="9.14285" y="13.7143" width="4.57143" height="4.57143" fill="#FAFAFA"/>
<rect x="22.8571" y="13.7143" width="4.57143" height="4.57143" fill="white"/>
<rect y="18.2857" width="4.57143" height="4.57143" fill="#F5F5F5"/>
<rect x="9.14285" y="18.2857" width="4.57143" height="4.57143" fill="#FAFAFA"/>
<rect x="22.8571" y="18.2857" width="4.57143" height="4.57143" fill="white"/>
<rect x="13.7142" y="18.2857" width="4.57143" height="4.57143" fill="#FAFAFA"/>
<rect x="27.4286" y="18.2857" width="4.57143" height="4.57143" fill="white"/>
<rect x="36.5714" y="18.2857" width="4.57143" height="4.57143" fill="white"/>
<rect x="36.5714" y="13.7143" width="4.57143" height="4.57143" fill="white"/>
<rect x="36.5714" y="9.14285" width="4.57143" height="4.57143" fill="white"/>
<rect x="41.1429" y="18.2857" width="4.57143" height="4.57143" fill="white"/>
<rect x="45.7143" y="18.2857" width="4.57143" height="4.57143" fill="white"/>
<rect x="45.7143" y="22.8571" width="4.57143" height="4.57143" fill="white"/>
<rect x="45.7143" y="27.4286" width="4.57143" height="4.57143" fill="white"/>
<rect x="41.1429" y="27.4286" width="4.57143" height="4.57143" fill="white"/>
<rect x="36.5714" y="27.4286" width="4.57143" height="4.57143" fill="white"/>
<rect x="45.7143" y="13.7143" width="4.57143" height="4.57143" fill="white"/>
<rect x="45.7143" y="9.14285" width="4.57143" height="4.57143" fill="white"/>
<rect x="73.181" width="4.57143" height="4.57143" fill="white"/>
<rect x="73.181" y="9.14285" width="4.57143" height="4.57143" fill="white"/>
<rect x="54.8952" width="4.57143" height="4.57143" fill="white"/>
<rect x="82.3239" y="9.14285" width="4.57143" height="4.57143" fill="#FAFAFA"/>
<rect x="86.8953" y="9.14285" width="4.57143" height="4.57143" fill="#FAFAFA"/>
<rect x="82.3239" y="4.57144" width="4.57143" height="4.57143" fill="white"/>
<rect x="82.3239" width="4.57143" height="4.57143" fill="white"/>
<rect x="73.181" y="13.7143" width="4.57143" height="4.57143" fill="white"/>
<rect x="54.8953" y="4.57144" width="4.57143" height="4.57143" fill="white"/>
<rect x="82.3239" y="13.7143" width="4.57143" height="4.57143" fill="#FAFAFA"/>
<rect x="73.181" y="18.2857" width="4.57143" height="4.57143" fill="#FAFAFA"/>
<rect x="54.8953" y="9.14285" width="4.57143" height="4.57143" fill="white"/>
<rect x="64.0381" y="9.14285" width="4.57143" height="4.57143" fill="white"/>
<rect x="59.4666" y="9.14285" width="4.57143" height="4.57143" fill="white"/>
<rect x="54.8953" y="13.7143" width="4.57143" height="4.57143" fill="white"/>
<rect x="64.0381" y="13.7143" width="4.57143" height="4.57143" fill="white"/>
<rect x="54.8953" y="18.2857" width="4.57143" height="4.57143" fill="white"/>
<rect x="64.0381" y="18.2857" width="4.57143" height="4.57143" fill="white"/>
<rect x="59.4666" y="18.2857" width="4.57143" height="4.57143" fill="white"/>
<rect x="82.3239" y="18.2857" width="4.57143" height="4.57143" fill="#FAFAFA"/>
<rect x="86.8953" y="18.2857" width="4.57143" height="4.57143" fill="#F5F5F5"/>
</g>
<defs>
<filter id="filter0_d" x="0" y="0" width="91.4667" height="34" filterUnits="userSpaceOnUse" color-interpolation-filters="sRGB">
<feFlood flood-opacity="0" result="BackgroundImageFix"/>
<feColorMatrix in="SourceAlpha" type="matrix" values="0 0 0 0 0 0 0 0 0 0 0 0 0 0 0 0 0 0 127 0"/>
<feOffset dy="2"/>
<feColorMatrix type="matrix" values="0 0 0 0 0 0 0 0 0 0 0 0 0 0 0 0 0 0 0.24 0"/>
<feBlend mode="normal" in2="BackgroundImageFix" result="effect1_dropShadow"/>
<feBlend mode="normal" in="SourceGraphic" in2="effect1_dropShadow" result="shape"/>
</filter>
</defs>
</svg>
