<svg width="96" height="96" viewBox="0 0 96 96" fill="none" xmlns="http://www.w3.org/2000/svg">
<path fill-rule="evenodd" clip-rule="evenodd" d="M77.4 40.16C74.68 26.36 62.56 16 48 16C36.44 16 26.4 22.56 21.4 32.16C9.36 33.44 0 43.64 0 56C0 69.24 10.76 80 24 80H76C87.04 80 96 71.04 96 60C96 49.44 87.8 40.88 77.4 40.16ZM76 72H24C15.16 72 8 64.84 8 56C8 47.8 14.12 40.96 22.24 40.12L26.52 39.68L28.52 35.88C32.32 28.56 39.76 24 48 24C58.48 24 67.52 31.44 69.56 41.72L70.76 47.72L76.88 48.16C83.12 48.56 88 53.8 88 60C88 66.6 82.6 72 76 72ZM42.2 52H32L48 36L64 52H53.8V64H42.2V52Z" fill="#C9C1D9"/>
</svg>
