<svg width="96" height="96" viewBox="0 0 96 96" fill="none" xmlns="http://www.w3.org/2000/svg">
<path fill-rule="evenodd" clip-rule="evenodd" d="M48 36V24C34.76 24 24 34.76 24 48C24 52.04 25 55.88 26.8 59.2L20.96 65.04C17.84 60.12 16 54.28 16 48C16 30.32 30.32 16 48 16V4L64 20L48 36ZM69.2 36.8007L75.04 30.9607C78.16 35.8807 80 41.7207 80 48.0007C80 65.6807 65.68 80.0007 48 80.0007V92.0007L32 76.0007L48 60.0007V72.0007C61.24 72.0007 72 61.2407 72 48.0007C72 43.9607 70.96 40.1607 69.2 36.8007Z" fill="#C9C1D9"/>
<path fill-rule="evenodd" clip-rule="evenodd" d="M89.3333 4H70.6667C69.2 4 68 5.2 68 6.66667V25.3333C68 26.8 69.1867 28 70.6667 28H89.3333C90.8 28 92 26.8 92 25.3333V6.66667C92 5.2 90.8133 4 89.3333 4ZM89.3333 25.3333H70.6666V6.66658H89.3333V25.3333ZM78.6666 20H76.6666V18H72.6666V12H74.6666V16H76.6666V12H78.6666V16H80V18.0133H78.6666V20ZM85.6 16L88.2667 12H86L83.3334 16V12H81.3334V20H83.3334V16L86 20H88.2667L85.6 16Z" fill="#C9C1D9"/>
<path fill-rule="evenodd" clip-rule="evenodd" d="M25.3333 68H6.66667C5.18667 68 4 69.2 4 70.6667V89.3333C4 90.8 5.18667 92 6.66667 92H25.3333C26.8 92 28 90.8 28 89.3333V70.6667C28 69.2 26.8 68 25.3333 68ZM25.3333 89.3333H6.66665V70.6666H25.3333V89.3333ZM12.6667 81.3333H10V84H8V76H10V79.3333H12.6667V76H14.6667V84H12.6667V81.3333ZM24 82.6667V77.3333C24 76.6 23.4 76 22.6667 76H17.3334V84H22.6667C23.4 84 24 83.4 24 82.6667ZM19.3334 82H22V78H19.3334V82Z" fill="#C9C1D9"/>
</svg>
